<svg width="27" height="31" viewBox="0 0 27 31" fill="none" xmlns="http://www.w3.org/2000/svg">
<path d="M26.58 28.5831L25.9198 26.6419C24.68 22.9905 21.3229 20.502 17.4981 20.3387C17.1614 20.6003 16.8066 20.825 16.4388 21.0216C15.8904 22.4614 14.0481 22.8514 12.9687 21.7488C11.6917 21.636 10.5226 21.1315 9.50157 20.3388C5.6768 20.5016 2.32054 22.9901 1.07991 26.642L0.420777 28.5831C0.230229 29.1414 0.321999 29.7568 0.665711 30.2361C1.00832 30.7157 1.5627 31 2.15232 31H24.8475C25.437 31 25.9915 30.7158 26.3341 30.2361C26.6777 29.7568 26.7694 29.1414 26.58 28.5831Z" fill="#00AD68"/>
<path d="M16.0266 18.8613C18.247 17.3006 19.8 13.8542 19.8 10.5222C19.8 1.05276 7.20068 1.06282 7.20068 10.5222C7.20068 14.5718 9.49361 18.7842 12.4931 19.5794C12.7822 18.76 13.5562 18.1674 14.4735 18.1674C15.0903 18.1673 15.6406 18.4379 16.0266 18.8613Z" fill="#00AD68"/>
<path d="M4.43611 14.4755C4.74848 15.7025 6.45088 15.3649 6.45088 14.2286C6.45088 9.67399 6.66855 9.2487 6.05881 8.75435C7.45463 0.153233 19.4785 0.217745 20.942 8.75533C20.3331 9.25123 20.5509 9.67451 20.5509 14.2286C20.5509 14.5848 20.7424 14.8837 21.0175 15.0692C21.0175 18.6123 19.5803 18.4052 15.2585 19.5507C14.5904 18.8255 13.397 19.2976 13.397 20.2758C13.397 21.5009 15.1527 21.7875 15.4934 20.556C18.9826 19.6308 22.0495 19.339 22.0495 15.8518V15.1361C22.3085 15.0021 22.4919 14.7643 22.5655 14.4755C25.9288 14.407 25.9298 9.36662 22.5655 9.29809C22.4959 9.02291 22.3247 8.79816 22.0838 8.66109C22.1705 7.62904 21.9579 6.27243 21.3662 4.96274C17.2512 -3.5285 5.09719 -0.206121 4.90683 8.02312C4.88061 8.3018 4.90177 8.49936 4.91787 8.66109C4.67696 8.79816 4.50568 9.02291 4.43611 9.29809C3.02712 9.32528 1.89124 10.4717 1.89124 11.8868C1.89124 13.3019 3.02712 14.4483 4.43611 14.4755Z" fill="#00AD68"/>
</svg>
