<svg width="33" height="33" viewBox="0 0 33 33" fill="none" xmlns="http://www.w3.org/2000/svg">
<path d="M25.7941 1.98515L24.8015 2.96483L17.209 10.5187L7.91483 1.2246C7.68279 1.00546 7.32185 1.00546 7.08982 1.2246L2.20427 6.11015C1.98513 6.32929 1.98513 6.70311 2.20427 6.93514L3.35154 8.08241L4.21521 7.21874L4.57615 7.57967L3.71248 8.44335L4.87264 9.6035L6.67733 7.79882L7.03826 8.15975L5.23357 9.96444L6.39373 11.1246L7.2574 10.2609L7.61834 10.6219L6.75467 11.4855L7.91483 12.6457L9.70662 10.841L10.0676 11.2019L8.26287 12.9937L9.42302 14.1539L10.2867 13.2902L10.6476 13.6512L9.78397 14.5148L10.9441 15.675L12.7488 13.8832L13.3289 14.4633L2.8488 24.9433C2.59099 25.2012 2.4492 25.5492 2.4492 25.8973C2.4492 25.8973 2.24294 30.4605 2.41052 30.6281C2.5781 30.7957 7.16716 30.6152 7.16716 30.6152C7.51521 30.6152 7.86326 30.4863 8.12107 30.2285L18.6011 19.7484L19.1683 20.3156L17.3765 22.1074L18.743 23.4738L19.6066 22.6101L19.9676 22.9711L19.1039 23.8348L20.264 24.9949L22.0558 23.1902L22.4168 23.5512L20.625 25.343L21.7851 26.5031L22.6488 25.6394L23.0097 26.0004L22.1461 26.8641L23.3062 28.0242L25.098 26.2324L25.459 26.5934L23.6672 28.3851L24.8273 29.5453L25.691 28.6816L26.0519 29.0426L25.1883 29.9062L26.3355 31.0535C26.5676 31.2855 26.9285 31.2855 27.1605 31.0535L32.0461 26.168C32.2781 25.9359 32.2781 25.575 32.0461 25.343L22.5457 15.8426L30.1254 8.28866L31.1308 7.28319C31.9816 6.43241 31.9816 5.066 31.1308 4.21522L28.9394 2.02382C28.0242 1.13436 26.6449 1.13437 25.7941 1.98515ZM25.6523 7.37343L5.80076 27.1992C5.3367 26.7867 4.39568 25.8586 3.98318 25.3816L23.8347 5.55584L25.6523 7.37343Z" fill="#00AD68"/>
</svg>
