<svg width="38" height="38" viewBox="0 0 38 38" fill="none" xmlns="http://www.w3.org/2000/svg">
<g clip-path="url(#clip0_222_506)">
<path d="M23.1562 33.25H2.6125C3.325 30.875 5.225 29.0937 7.6 28.3812C10.8063 27.55 12.9437 24.7 12.9437 21.4937C12.9437 21.0187 12.7062 20.6625 12.35 20.425C10.6875 19.475 9.61875 17.4562 9.5 15.3187C9.5 14.4875 10.0938 13.6562 10.925 13.4187L12.2312 12.9437C12.7063 12.825 13.0625 12.35 13.0625 11.875V8.07495C15.2 11.0437 18.2875 13.0625 21.7312 13.8937C21.4937 14.3687 21.375 14.8437 21.375 15.4375C21.375 17.575 20.1875 19.475 18.4062 20.5437C18.05 20.7812 17.8125 21.1375 17.8125 21.6125C17.8125 24.225 19.2375 26.4812 21.375 27.6687C21.4937 26.8375 21.7313 26.0062 22.0875 25.2937C21.0188 24.5812 20.3062 23.3937 20.1875 22.2062C22.325 20.6625 23.75 18.1687 23.75 15.4375C23.75 14.725 24.225 14.25 24.9375 14.25C25.65 14.25 26.125 13.775 26.125 13.0625V10.3312C26.125 6.2937 23.1562 2.84995 19.2375 2.37495C16.8625 2.13745 14.4875 2.9687 12.825 4.74995C11.6375 4.6312 10.5688 4.98745 9.5 5.8187C7.95625 6.88745 7.125 8.6687 7.125 10.6875V15.2V15.3187V15.4375V15.5562C7.24375 18.1687 8.55 20.6625 10.5687 22.2062C10.3312 24.1062 8.90625 25.65 7.00625 26.125C3.44375 27.075 0.83125 29.8062 0.11875 33.3687C0 33.9625 0.11875 34.4375 0.475 34.9125C0.95 35.3875 1.425 35.625 2.01875 35.625H28.5C26.3625 35.625 24.4625 34.675 23.1562 33.25Z" fill="white"/>
<path d="M35.2688 21.7312C31.5876 18.0499 25.5313 18.0499 21.85 21.7312C18.1688 25.4124 18.1688 31.4687 21.85 35.1499C25.5313 38.8312 31.5876 38.8312 35.2688 35.1499C38.9501 31.4687 38.9501 25.5312 35.2688 21.7312ZM33.25 29.6874H28.5C27.7875 29.6874 27.3125 29.2124 27.3125 28.4999V22.5624C27.3125 21.8499 27.7875 21.3749 28.5 21.3749C29.2125 21.3749 29.6875 21.8499 29.6875 22.5624V27.3124H33.25C33.9625 27.3124 34.4375 27.7874 34.4375 28.4999C34.4375 29.2124 33.9625 29.6874 33.25 29.6874Z" fill="white"/>
</g>
<defs>
<clipPath id="clip0_222_506">
<rect width="38" height="38" fill="white"/>
</clipPath>
</defs>
</svg>
