<?xml version="1.0" encoding="utf-8"?>
<!-- Generator: Adobe Illustrator 25.0.1, SVG Export Plug-In . SVG Version: 6.00 Build 0)  -->
<svg version="1.1" id="Layer_1" xmlns="http://www.w3.org/2000/svg" xmlns:xlink="http://www.w3.org/1999/xlink" x="0px" y="0px"
	 viewBox="0 0 32 32" style="enable-background:new 0 0 32 32;" xml:space="preserve">
<style type="text/css">
	.st0{fill:#00AD68;}
</style>
<path class="st0" d="M10.56,27.85c-2.06,0-4.02-0.64-5.82-1.91c-0.31-0.22-0.74-0.59-1.3-1.11c-0.69-0.74-1-1.18-1.14-1.41
	c-0.35-0.54-0.6-0.99-0.77-1.37c-0.64-1.31-0.95-2.79-0.95-4.41v-3.27c0-1.76,0.39-3.37,1.15-4.78C1.94,9.17,2.22,8.7,2.57,8.18
	c0,0,0.64-0.74,0.86-0.99C4.01,6.63,4.5,6.22,4.85,6.01C5.51,5.54,6.15,5.17,6.77,4.9c1.27-0.5,2.57-0.76,3.83-0.76h19.09
	c0.7,0,1.24,0.3,1.64,0.91c0.16,0.28,0.25,0.6,0.25,0.93v3.52H10.71c-1.54,0-2.82,0.63-3.8,1.88c-0.63,0.83-0.95,1.77-0.95,2.8v3.64
	c0,1.22,0.44,2.31,1.3,3.24c0.44,0.41,0.77,0.66,1.03,0.8c0.21,0.14,0.5,0.28,0.82,0.36c0.52,0.19,0.95,0.28,1.28,0.28h21.14v3.58
	c0,0.5-0.23,0.96-0.7,1.39c-0.32,0.24-0.71,0.38-1.14,0.38L10.56,27.85L10.56,27.85z"/>
</svg>
