<svg width="179" height="57" viewBox="0 0 179 57" fill="none" xmlns="http://www.w3.org/2000/svg">
<path d="M57.4527 47.4404H56.5009V56.7506H57.4527V47.4404Z" fill="#00AD68"/>
<path d="M122.521 47.4404H121.57V56.7506H122.521V47.4404Z" fill="#00AD68"/>
<path d="M2.42392 51.9335H4.61895V52.9878C4.61895 53.5077 4.53081 53.9507 4.35763 54.3177C4.18277 54.6837 3.92993 54.963 3.60308 55.1547C3.27086 55.3446 2.87253 55.4379 2.4016 55.4379C1.92672 55.4379 1.52162 55.35 1.18883 55.169C0.853787 54.9881 0.597841 54.726 0.421844 54.3828C0.245846 54.0395 0.159119 53.6219 0.159119 53.1312V51.1991C0.159119 50.6777 0.245847 50.2372 0.420432 49.872C0.593887 49.5056 0.845878 49.2294 1.17612 49.0375C1.50439 48.8476 1.90553 48.7515 2.37618 48.7515C2.76462 48.7515 3.10955 48.8278 3.41041 48.9814C3.70958 49.1347 3.95903 49.3565 4.15621 49.6451C4.35198 49.9317 4.48928 50.2834 4.56697 50.6988H3.74687C3.65223 50.3054 3.48273 50.0087 3.23865 49.8038C2.99372 49.6017 2.70727 49.5003 2.37618 49.5003C1.9109 49.5003 1.55213 49.6479 1.30324 49.9433C1.0521 50.2414 0.925825 50.6588 0.925825 51.1991V53.1312C0.925825 53.63 1.05493 54.0158 1.31003 54.285C1.5688 54.5555 1.93209 54.6905 2.4016 54.6905C2.86038 54.6905 3.21351 54.549 3.46211 54.2686C3.70958 53.9857 3.83529 53.5635 3.83529 53.0027V52.6713H2.42421L2.42392 51.9335Z" fill="#939598"/>
<path d="M7.21765 48.8164H7.97503V55.3715H7.21765V48.8164ZM7.60581 52.6021V51.86H9.76496C10.072 51.86 10.3184 51.7561 10.5051 51.545C10.693 51.3347 10.7851 51.0566 10.7876 50.708C10.7876 50.3596 10.6955 50.0804 10.5091 49.8701C10.3235 49.6596 10.076 49.5536 9.76467 49.5536H7.60552V48.8164H9.72936C10.0972 48.8164 10.4209 48.8939 10.6981 49.0517C10.9729 49.209 11.1885 49.4311 11.3393 49.712C11.4916 49.9938 11.5673 50.3272 11.5673 50.7077C11.5673 51.0853 11.4916 51.417 11.3379 51.7028C11.1837 51.9846 10.9687 52.2058 10.6952 52.3637C10.4195 52.5223 10.0969 52.6018 9.72936 52.6018L7.60581 52.6021ZM10.9331 55.3715L9.48132 52.3986L10.2133 52.1895L11.8343 55.3715H10.9331Z" fill="#939598"/>
<path d="M13.4527 55.3716L15.7876 48.8193H16.5447L18.8795 55.3716H18.0526L16.1661 49.7919L14.281 55.3716H13.4527ZM14.5302 53.1182H17.8622V53.8568H14.5302V53.1182Z" fill="#939598"/>
<path d="M21.0867 48.8198H21.8441V55.3729H21.0867V48.8198ZM21.5438 52.8301V52.0917H23.5682C23.9027 52.0917 24.1691 51.9759 24.3719 51.7417C24.5745 51.5089 24.6734 51.206 24.6734 50.8283C24.6734 50.4454 24.5745 50.1376 24.3719 49.9062C24.1691 49.6749 23.9024 49.5604 23.5682 49.5604H21.5438V48.8201H23.5374C23.9213 48.8201 24.2544 48.9024 24.5397 49.0712C24.8242 49.2372 25.0454 49.4714 25.2028 49.7707C25.3624 50.0717 25.4409 50.4228 25.4409 50.8283C25.4409 51.2285 25.3624 51.5783 25.2028 51.8798C25.0451 52.1794 24.8242 52.4136 24.5397 52.5793C24.2544 52.7461 23.9216 52.8298 23.5374 52.8298H21.5438V52.8301Z" fill="#939598"/>
<path d="M27.7995 48.8193H28.5569V55.3716H27.7995V48.8193ZM28.2871 51.7672H31.9311V52.5159H28.2871V51.7672ZM31.5274 48.8193H32.2867V55.3716H31.5274V48.8193Z" fill="#939598"/>
<path d="M35.9264 48.8193H35.1679V55.3716H35.9264V48.8193Z" fill="#939598"/>
<path d="M40.8798 55.4393C40.4397 55.4393 40.0521 55.3381 39.7213 55.1344C39.3904 54.9323 39.1331 54.6477 38.9509 54.2807C38.7667 53.9147 38.6757 53.4866 38.6757 52.9973V51.1991C38.6757 50.7056 38.7667 50.2761 38.9509 49.91C39.1331 49.5445 39.3902 49.2593 39.7213 49.0567C40.0518 48.8538 40.4397 48.7515 40.8798 48.7515C41.2453 48.7515 41.581 48.8298 41.8827 48.9885C42.1889 49.1449 42.4414 49.3661 42.6468 49.6533C42.8494 49.9393 42.9892 50.2722 43.0624 50.6532H42.2948C42.2307 50.4229 42.1279 50.2186 41.9852 50.0481C41.8397 49.874 41.6719 49.7412 41.479 49.6437C41.2849 49.547 41.0852 49.5 40.8798 49.5C40.4464 49.5 40.1012 49.6558 39.8374 49.967C39.5732 50.2781 39.4419 50.6876 39.4419 51.1988V52.9971C39.4419 53.5088 39.5735 53.9186 39.8374 54.2261C40.1015 54.5358 40.4467 54.6902 40.8798 54.6902C41.1883 54.6902 41.4773 54.5916 41.7476 54.3906C42.0157 54.19 42.1988 53.9076 42.2948 53.5379H43.0624C42.9892 53.9183 42.8494 54.2511 42.644 54.5383C42.4375 54.8241 42.1849 55.0459 41.8827 55.202C41.5784 55.3618 41.2456 55.4393 40.8798 55.4393Z" fill="#939598"/>
<path d="M47.3025 55.4395C46.9948 55.4395 46.7041 55.4102 46.4346 55.349C46.1623 55.2879 45.9095 55.1999 45.6719 55.0802C45.436 54.959 45.2134 54.8085 45.008 54.6281L45.4733 54.0191C45.7264 54.248 46.0055 54.4193 46.3089 54.5337C46.6132 54.6479 46.9443 54.7051 47.3022 54.7051C47.8036 54.7051 48.1918 54.605 48.4675 54.4055C48.741 54.206 48.8785 53.9259 48.8785 53.5637V53.5609C48.8785 53.2988 48.8102 53.0993 48.6746 52.9587C48.5376 52.8203 48.3587 52.7126 48.1395 52.6433C47.9186 52.5726 47.6785 52.5142 47.4186 52.4666C47.1722 52.419 46.925 52.3671 46.679 52.306C46.4293 52.2473 46.2016 52.1586 45.9962 52.0413C45.7908 51.9255 45.6244 51.7575 45.4973 51.5411C45.371 51.3255 45.3069 51.0383 45.3069 50.6756V50.6728C45.3069 50.061 45.5041 49.5912 45.8965 49.255C46.288 48.9208 46.84 48.752 47.555 48.752C47.892 48.752 48.2231 48.8092 48.5477 48.9208C48.8732 49.0352 49.1918 49.2068 49.5014 49.4368L49.0667 50.0556C48.8068 49.8643 48.5531 49.7194 48.3053 49.6276C48.0556 49.5329 47.8036 49.4867 47.5547 49.4867C47.0787 49.4867 46.7095 49.5887 46.4493 49.7882C46.1869 49.9889 46.0572 50.2755 46.0572 50.6452V50.6494C46.0572 50.9087 46.1318 51.104 46.2809 51.241C46.4301 51.3757 46.6239 51.4777 46.8677 51.5445C47.1078 51.6113 47.3649 51.6744 47.6372 51.7319C47.8759 51.7801 48.113 51.8373 48.3503 51.9075C48.5861 51.9782 48.8 52.0715 48.9929 52.1961C49.1839 52.3198 49.3382 52.4875 49.4543 52.7033C49.5718 52.9161 49.6288 53.194 49.6288 53.5341V53.5437C49.6288 54.1474 49.4249 54.6143 49.0195 54.9443C48.6119 55.2755 48.0389 55.4395 47.3025 55.4395Z" fill="#939598"/>
<path d="M66.8249 55.4395C66.5173 55.4395 66.2266 55.4102 65.9571 55.349C65.6861 55.2879 65.4316 55.1999 65.194 55.0802C64.9581 54.959 64.7355 54.8085 64.5302 54.6281L64.9968 54.0191C65.2488 54.248 65.5277 54.4193 65.8313 54.5337C66.137 54.6479 66.4684 54.7051 66.8249 54.7051C67.3263 54.7051 67.7145 54.605 67.9902 54.4055C68.2637 54.206 68.401 53.9259 68.401 53.5637V53.5609C68.401 53.2988 68.3343 53.0993 68.1984 52.9587C68.0611 52.8203 67.8812 52.7126 67.6622 52.6433C67.441 52.5726 67.2009 52.5142 66.941 52.4666C66.6961 52.419 66.4475 52.3671 66.2014 52.306C65.9517 52.2473 65.7237 52.1586 65.5186 52.0413C65.3132 51.9255 65.1468 51.7575 65.0197 51.5411C64.8934 51.3255 64.8307 51.0383 64.8307 50.6756V50.6728C64.8307 50.061 65.0265 49.5912 65.4195 49.255C65.8104 48.9208 66.3624 48.752 67.0794 48.752C67.4159 48.752 67.7467 48.8092 68.0713 48.9208C68.3967 49.0352 68.714 49.2068 69.0253 49.4368L68.5905 50.0556C68.3301 49.8643 68.0769 49.7194 67.8278 49.6276C67.578 49.5329 67.3263 49.4867 67.0794 49.4867C66.6012 49.4867 66.2342 49.5887 65.9729 49.7882C65.7102 49.9889 65.5799 50.2755 65.5799 50.6452V50.6494C65.5799 50.9087 65.6542 51.104 65.8037 51.241C65.9531 51.3757 66.1492 51.4777 66.3904 51.5445C66.6308 51.6113 66.8879 51.6744 67.1602 51.7319C67.3998 51.7801 67.6359 51.8373 67.873 51.9075C68.1091 51.9782 68.3238 52.0715 68.5157 52.1961C68.7066 52.3198 68.8609 52.4875 68.9767 52.7033C69.0942 52.9161 69.1516 53.194 69.1516 53.5341V53.5437C69.1516 54.1474 68.9476 54.6143 68.5425 54.9443C68.1343 55.2755 67.5611 55.4395 66.8249 55.4395Z" fill="#939598"/>
<path d="M72.3978 48.8193H71.6404V55.3716H72.3978V48.8193Z" fill="#939598"/>
<path d="M77.4144 51.9335H79.6091V52.9878C79.6091 53.5077 79.521 53.9507 79.3478 54.3177C79.1732 54.6837 78.9207 54.963 78.5932 55.1547C78.261 55.3446 77.8627 55.4379 77.3918 55.4379C76.9169 55.4379 76.5118 55.35 76.179 55.169C75.8437 54.9881 75.588 54.726 75.412 54.3828C75.236 54.0398 75.1493 53.6219 75.1493 53.1312V51.1991C75.1493 50.6777 75.236 50.2372 75.4106 49.872C75.5838 49.5056 75.8369 49.2294 76.1666 49.0375C76.4946 48.8476 76.896 48.7515 77.3666 48.7515C77.7548 48.7515 78.1 48.8278 78.4009 48.9814C78.7 49.1347 78.95 49.3565 79.1467 49.6451C79.3424 49.9317 79.4795 50.2834 79.5574 50.6988H78.7373C78.6424 50.3054 78.4721 50.0087 78.2291 49.8038C77.9842 49.6017 77.6986 49.5003 77.3669 49.5003C76.9016 49.5003 76.5426 49.6479 76.2937 49.9433C76.0426 50.2414 75.9163 50.6588 75.9163 51.1991V53.1312C75.9163 53.63 76.0451 54.0158 76.301 54.285C76.559 54.5555 76.9223 54.6905 77.3918 54.6905C77.8503 54.6905 78.2037 54.549 78.452 54.2686C78.6997 53.9857 78.8252 53.5635 78.8252 53.0027V52.6713H77.4141V51.9335H77.4144Z" fill="#939598"/>
<path d="M82.2081 55.3677V48.8208H82.926L86.3131 54.3044L86.1326 54.2717V48.8208H86.8858V55.3677H86.1578L82.7387 49.8968L82.9613 49.9675V55.3677H82.2081Z" fill="#939598"/>
<path d="M89.0059 55.3716L91.3405 48.8193H92.097L94.4327 55.3716H93.6033L91.7179 49.7919L89.8331 55.3716H89.0059ZM90.0806 53.1182H93.4129V53.8568H90.0806V53.1182Z" fill="#939598"/>
<path d="M98.4239 51.9335H100.618V52.9878C100.618 53.5077 100.531 53.9507 100.358 54.3177C100.183 54.6837 99.9296 54.963 99.6028 55.1547C99.2706 55.3446 98.8708 55.4379 98.4013 55.4379C97.9264 55.4379 97.5216 55.35 97.1871 55.169C96.8532 54.9881 96.5975 54.726 96.4215 54.3828C96.2455 54.0395 96.1588 53.6219 96.1588 53.1312V51.1991C96.1588 50.6777 96.2455 50.2372 96.4198 49.872C96.5933 49.5056 96.8467 49.2294 97.1761 49.0375C97.5041 48.8476 97.9052 48.7515 98.3762 48.7515C98.764 48.7515 99.1098 48.8278 99.4104 48.9814C99.7093 49.1347 99.9587 49.3565 100.155 49.6451C100.352 49.9317 100.489 50.2834 100.566 50.6988H99.7471C99.6522 50.3054 99.4813 50.0087 99.2383 49.8038C98.9937 49.6017 98.7072 49.5003 98.3762 49.5003C97.9106 49.5003 97.5521 49.6479 97.3029 49.9433C97.0515 50.2414 96.9244 50.6588 96.9244 51.1991V53.1312C96.9244 53.63 97.0543 54.0158 97.3094 54.285C97.5682 54.5555 97.9318 54.6905 98.401 54.6905C98.8598 54.6905 99.2132 54.549 99.4615 54.2686C99.709 53.9857 99.8344 53.5635 99.8344 53.0027V52.6713H98.4236V51.9335H98.4239Z" fill="#939598"/>
<path d="M103.218 48.8193H103.975V55.3716H103.218V48.8193ZM103.648 48.8193H107.284V49.5577H103.648V48.8193ZM103.648 51.7494H106.806V52.488H103.648V51.7494ZM103.648 54.6318H107.284V55.3702H103.648V54.6318Z" fill="#939598"/>
<path d="M111.699 55.4395C111.391 55.4395 111.101 55.4102 110.831 55.349C110.56 55.2879 110.306 55.1999 110.069 55.0802C109.832 54.959 109.61 54.8085 109.405 54.6281L109.871 54.0191C110.123 54.248 110.402 54.4193 110.706 54.5337C111.011 54.6479 111.342 54.7051 111.699 54.7051C112.2 54.7051 112.588 54.605 112.864 54.4055C113.138 54.206 113.275 53.9259 113.275 53.5637V53.5609C113.275 53.2988 113.208 53.0993 113.072 52.9587C112.935 52.8203 112.755 52.7126 112.535 52.6433C112.315 52.5726 112.075 52.5142 111.815 52.4666C111.57 52.419 111.322 52.3671 111.076 52.306C110.826 52.2473 110.598 52.1586 110.392 52.0413C110.187 51.9255 110.021 51.7575 109.893 51.5411C109.767 51.3255 109.704 51.0383 109.704 50.6756V50.6728C109.704 50.061 109.9 49.5912 110.293 49.255C110.684 48.9208 111.236 48.752 111.953 48.752C112.288 48.752 112.62 48.8092 112.946 48.9208C113.271 49.0352 113.588 49.2068 113.899 49.4368L113.465 50.0556C113.203 49.8643 112.951 49.7194 112.702 49.6276C112.452 49.5329 112.201 49.4867 111.953 49.4867C111.475 49.4867 111.108 49.5887 110.846 49.7882C110.584 49.9889 110.454 50.2755 110.454 50.6452V50.6494C110.454 50.9087 110.528 51.104 110.678 51.241C110.827 51.3757 111.023 51.4777 111.264 51.5445C111.505 51.6113 111.762 51.6744 112.034 51.7319C112.273 51.7801 112.51 51.8373 112.747 51.9075C112.983 51.9782 113.198 52.0715 113.39 52.1961C113.58 52.3198 113.735 52.4875 113.851 52.7033C113.968 52.9161 114.025 53.194 114.025 53.5341V53.5437C114.025 54.1474 113.821 54.6143 113.416 54.9443C113.008 55.2755 112.435 55.4395 111.699 55.4395Z" fill="#939598"/>
<path d="M131.827 48.8198H132.585V55.3729H131.827V48.8198ZM132.284 52.8301V52.0917H134.309C134.643 52.0917 134.91 51.9759 135.114 51.7417C135.315 51.5089 135.415 51.206 135.415 50.8283C135.415 50.4454 135.315 50.1376 135.114 49.9062C134.91 49.6749 134.643 49.5604 134.309 49.5604H132.284V48.8201H134.279C134.662 48.8201 134.995 48.9024 135.28 49.0712C135.565 49.2372 135.787 49.4714 135.944 49.7707C136.103 50.0717 136.181 50.4228 136.181 50.8283C136.181 51.2285 136.103 51.5783 135.944 51.8798C135.787 52.1794 135.565 52.4136 135.28 52.5793C134.995 52.7461 134.662 52.8298 134.279 52.8298H132.284V52.8301Z" fill="#939598"/>
<path d="M138.54 48.8164H139.297V55.3715H138.54V48.8164ZM138.929 52.6021V51.86H141.089C141.394 51.86 141.642 51.7561 141.828 51.545C142.015 51.3347 142.107 51.0566 142.111 50.708C142.111 50.3596 142.02 50.0804 141.832 49.8701C141.646 49.6596 141.399 49.5536 141.089 49.5536H138.929V48.8164H141.053C141.421 48.8164 141.745 48.8939 142.021 49.0517C142.296 49.209 142.511 49.4311 142.663 49.712C142.814 49.9938 142.89 50.3272 142.89 50.7077C142.89 51.0853 142.814 51.417 142.661 51.7028C142.506 51.9846 142.291 52.2058 142.019 52.3637C141.742 52.5223 141.421 52.6018 141.052 52.6018L138.929 52.6021ZM142.256 55.3715L140.805 52.3986L141.536 52.1895L143.157 55.3715H142.256Z" fill="#939598"/>
<path d="M146.428 48.8193H145.669V55.3716H146.428V48.8193Z" fill="#939598"/>
<path d="M149.309 55.3677V48.8208H150.026L153.414 54.3044L153.234 54.2717V48.8208H153.986V55.3677H153.259L149.839 49.8968L150.062 49.9675V55.3677H149.309Z" fill="#939598"/>
<path d="M156.279 48.8193H160.748V49.5577H156.279V48.8193ZM158.135 49.2209H158.894V55.3739H158.135V49.2209Z" fill="#939598"/>
<path d="M163.692 48.8193H162.933V55.3716H163.692V48.8193Z" fill="#939598"/>
<path d="M166.573 55.3677V48.8208H167.291L170.678 54.3044L170.498 54.2717V48.8208H171.25V55.3677H170.522L167.103 49.8968L167.326 49.9675V55.3677H166.573Z" fill="#939598"/>
<path d="M176.201 51.9335H178.395V52.9878C178.395 53.5077 178.308 53.9507 178.134 54.3177C177.959 54.6837 177.707 54.963 177.379 55.1547C177.047 55.3446 176.648 55.4379 176.179 55.4379C175.704 55.4379 175.298 55.35 174.964 55.169C174.629 54.9881 174.374 54.726 174.198 54.3828C174.022 54.0395 173.936 53.6219 173.936 53.1312V51.1991C173.936 50.6777 174.022 50.2372 174.197 49.872C174.37 49.5056 174.621 49.2294 174.953 49.0375C175.281 48.8476 175.682 48.7515 176.152 48.7515C176.541 48.7515 176.887 48.8278 177.187 48.9814C177.486 49.1347 177.737 49.3565 177.932 49.6451C178.127 49.9317 178.266 50.2834 178.342 50.6988H177.524C177.429 50.3054 177.259 50.0087 177.016 49.8038C176.771 49.6017 176.483 49.5003 176.152 49.5003C175.688 49.5003 175.329 49.6479 175.079 49.9433C174.827 50.2414 174.701 50.6588 174.701 51.1991V53.1312C174.701 53.63 174.831 54.0158 175.086 54.285C175.345 54.5555 175.707 54.6905 176.178 54.6905C176.637 54.6905 176.99 54.549 177.238 54.2686C177.486 53.9857 177.612 53.5635 177.612 53.0027V52.6713H176.201V51.9335H176.201Z" fill="#939598"/>
<path d="M5.92324 9.37611C5.75826 9.37611 5.606 9.30931 5.45797 9.17404C5.3153 8.99029 5.26474 8.86376 5.26474 8.73525V2.70265H0.582581V1.70304C0.582581 1.53564 0.583712 1.41446 0.587949 1.34626L0.603769 1.2789C0.634279 1.13997 0.686258 1.03119 0.758578 0.954252C0.871861 0.855615 0.916779 0.83307 0.926384 0.829124C1.02865 0.762615 1.1473 0.73584 1.30493 0.73584H11.367C11.5682 0.73584 11.73 0.794461 11.8603 0.914234C11.9577 1.00752 11.9843 1.05373 11.9896 1.06613C12.071 1.22818 12.0894 1.31723 12.0894 1.36768V2.70293H7.23659V9.37639L5.92324 9.37611Z" fill="#00AD68"/>
<path d="M22.3939 9.3759V7.25155C22.3939 7.02976 22.3631 6.86715 22.3018 6.74597C22.278 6.68876 22.2328 6.60506 22.1729 6.516C21.9396 6.23954 21.6554 6.11019 21.3167 6.11019H14.8503V9.3759H13.5479C13.3663 9.3759 13.2053 9.30516 13.0654 9.1589C12.9479 9.03011 12.8906 8.87144 12.8906 8.66938V1.45145C12.8906 1.15864 13.0092 0.955169 13.2623 0.807496C13.3544 0.761842 13.4508 0.735352 13.5358 0.735352H14.85V3.12433C14.85 3.39797 14.9517 3.64569 15.1571 3.85451C15.3636 4.06052 15.6277 4.16423 15.9452 4.16423H22.2704L22.3809 4.04841L22.3939 3.95935V0.735352H23.714C23.8527 0.735352 23.9951 0.799325 24.1459 0.929807C24.2781 1.0586 24.3445 1.22261 24.3445 1.42383V8.70658C24.3445 8.95204 24.2462 9.13466 24.0312 9.28233C23.9276 9.34208 23.8131 9.37561 23.6888 9.37561H22.3939V9.3759Z" fill="#00AD68"/>
<path d="M26.4915 9.3759C26.4689 9.3759 26.4144 9.37195 26.3065 9.33447C26.1381 9.27162 26.0107 9.1589 25.9226 8.9898C25.8878 8.90498 25.8666 8.8007 25.8666 8.6891V4.13379C25.8624 3.91172 25.8599 3.19393 25.8599 1.98183V1.38494C25.8599 1.27869 25.896 1.16033 25.9703 1.03633C26.0401 0.936286 26.1268 0.855405 26.2277 0.807496C26.3333 0.760432 26.3684 0.75564 26.3729 0.75564C26.4144 0.744649 26.4359 0.739297 26.4904 0.735352H35.3572C35.581 0.735352 35.757 0.817642 35.8994 0.983069C35.9607 1.05719 36.0053 1.15047 36.0347 1.2663C36.0395 1.29138 36.0462 1.34182 36.0462 1.443V2.579H27.8173V4.26681H35.1866C35.4832 4.26681 35.7222 4.5072 35.7222 4.80255V5.83823H27.945L27.8306 5.9518L27.8244 6.0372V7.60946H36.0462V8.72772C36.0462 8.87962 35.9903 9.02306 35.8714 9.16002C35.7807 9.2519 35.746 9.27162 35.7423 9.27162C35.6236 9.34518 35.4968 9.3759 35.3445 9.3759H26.4915Z" fill="#00AD68"/>
<path d="M11.7176 40.9375C9.32994 40.9375 7.06062 40.1949 4.97577 38.7255C4.61671 38.4744 4.12092 38.0454 3.47541 37.4393C2.6813 36.5865 2.31829 36.0772 2.15727 35.807C1.7547 35.185 1.46005 34.6664 1.26485 34.226C0.529217 32.7041 0.159424 30.9924 0.159424 29.12V25.3315C0.159424 23.294 0.609164 21.4317 1.48915 19.8008C1.73662 19.3068 2.05952 18.7691 2.46886 18.1626C2.46886 18.1626 3.21268 17.3011 3.46919 17.0173C4.13307 16.3686 4.69666 15.8976 5.106 15.6494C5.87412 15.1035 6.60494 14.6822 7.32193 14.3685C8.79291 13.7913 10.2938 13.4932 11.7609 13.4932H33.8546C34.6623 13.4932 35.2852 13.8361 35.7584 14.5412C35.9454 14.8693 36.0477 15.2314 36.0477 15.6195V19.6977H11.8823C10.0981 19.6977 8.61578 20.4281 7.48098 21.8682C6.74761 22.834 6.37979 23.9196 6.37979 25.106V29.3251C6.37979 30.743 6.88603 32.0033 7.88354 33.0767C8.38921 33.5476 8.77257 33.8402 9.08077 34.0044C9.31977 34.1693 9.65934 34.3243 10.0328 34.4244C10.6379 34.6402 11.1351 34.7532 11.5125 34.7532H35.9827V38.8951C35.9827 39.4765 35.7188 40.0032 35.1722 40.5035C34.7984 40.7839 34.3524 40.9383 33.8546 40.9383H11.7176V40.9375Z" fill="#00AD68"/>
<path d="M57.4609 40.9389C54.9528 40.9389 52.6024 40.1526 50.4786 38.6051C50.1348 38.3388 49.6317 37.8789 48.9825 37.244C48.3644 36.5803 47.9282 36.0254 47.7053 35.6173C46.4493 33.6719 45.8202 31.5552 45.8202 29.284V25.1461C45.8202 22.4874 46.6855 20.0401 48.3938 17.8681C48.6333 17.5967 49.0548 17.1365 49.6404 16.5123C50.152 16.0726 50.6351 15.7159 51.0252 15.4887C53.0471 14.1588 55.1907 13.4932 57.4222 13.4932H72.2111C74.5595 13.4932 76.7898 14.2104 78.8365 15.6254C79.1871 15.8444 79.6069 16.18 80.1106 16.6442L80.3321 16.8212C80.9897 17.5781 81.4692 18.1525 81.7652 18.5555C83.1178 20.549 83.8122 22.7999 83.8122 25.2323V29.2037C83.8122 32.0703 82.8678 34.6602 81.0025 36.8967C80.4366 37.5128 79.9549 37.9696 79.5883 38.2323C78.9066 38.8047 78.2328 39.255 77.5469 39.6022C75.848 40.4897 74.0405 40.9389 72.1712 40.9389H57.4609ZM57.5434 19.6982C55.7543 19.6982 54.2596 20.4563 53.0985 21.9536C52.753 22.4403 52.5313 22.8473 52.4053 23.2238C52.1694 23.7573 52.0397 24.4835 52.0397 25.3309V29.0777C52.0397 30.2053 52.288 31.1657 52.7731 31.937C52.8208 32.1391 53.0985 32.5379 53.5808 33.0716C54.6913 34.1919 56.0328 34.7541 57.5835 34.7541H72.0452C73.8465 34.7541 75.3304 34.0149 76.4522 32.5599C76.7681 32.1554 77.0212 31.7322 77.2122 31.2987C77.4667 30.6779 77.593 29.906 77.593 28.9963V25.5C77.593 24.5131 77.4825 23.7759 77.2506 23.2559C76.7853 22.0683 75.9762 21.1214 74.8572 20.4614C74.0097 19.9575 73.0795 19.6982 72.0887 19.6982H57.5434Z" fill="#00AD68"/>
<path d="M95.0088 40.9371V15.7614C95.0088 15.2809 95.0741 15.0163 95.1291 14.8808C95.1823 14.7317 95.2571 14.5801 95.3693 14.4011C95.4249 14.3247 95.5105 14.2267 95.6105 14.1396C96.0831 13.7011 96.5781 13.4937 97.1369 13.4937H118.058C120.779 13.4937 123.156 13.9203 125.118 14.7621C125.529 14.9256 125.841 15.0589 126.067 15.1637C126.358 15.3291 126.709 15.5467 127.077 15.7933C128.806 16.8462 130.031 18.3294 130.748 20.2192C131.131 21.2245 131.326 22.3143 131.326 23.4585V23.7268C131.326 25.0995 131.036 26.4071 130.459 27.6226C130.283 27.9583 130.051 28.3556 129.773 28.7919C129.562 29.0635 129.281 29.3972 128.953 29.7548C128.789 29.9423 128.641 30.0953 128.494 30.2294L128.268 30.4574L127.843 30.7826C127.629 30.9374 127.328 31.1341 126.973 31.3578L126.765 31.4892L125.418 32.1528C124.937 32.3495 124.39 32.5361 123.82 32.7103L122.857 33.0003L123.556 33.7223C125.241 35.458 126.407 36.7298 127.025 37.5054L128.301 38.9509C128.893 39.6309 129.467 40.2793 130.018 40.8954H122.494C121.955 40.8954 121.663 40.8252 121.515 40.7728L121.184 40.5631C120.949 40.4087 120.672 40.1283 120.357 39.7298C119.037 38.166 117.66 36.4779 116.208 34.645L115.304 33.4867H115.004C114.911 33.4867 114.804 33.5016 114.619 33.5425C114.42 33.5397 114.074 33.5349 113.591 33.5349C112.337 33.5349 110.143 33.5507 107.057 33.5704H101.208V38.8545C101.208 39.5427 100.912 40.1117 100.303 40.5984C99.9831 40.8182 99.5844 40.9368 99.1195 40.9368L95.0088 40.9371ZM101.209 27.405H118.716C120.176 27.405 121.272 27.1506 122.068 26.6264C122.653 26.2541 123.098 25.7409 123.381 25.1119C123.608 24.6449 123.725 24.0985 123.725 23.5021C123.725 22.2962 123.174 21.2862 122.09 20.494C121.912 20.3726 121.737 20.2711 121.557 20.1877C121.149 19.9842 120.724 19.8585 120.154 19.7514C119.888 19.7387 119.681 19.7278 119.415 19.701L101.209 19.6999V27.405Z" fill="#00AD68"/>
<path d="M154.066 40.9375C151.678 40.9375 149.409 40.1949 147.324 38.7255C146.965 38.4744 146.469 38.0454 145.824 37.4393C145.029 36.5865 144.666 36.0772 144.506 35.807C144.102 35.185 143.807 34.6664 143.613 34.226C142.876 32.7041 142.508 30.9924 142.508 29.12V25.3315C142.508 23.294 142.958 21.4317 143.837 19.8008C144.085 19.3068 144.408 18.7691 144.817 18.1626C144.817 18.1626 145.561 17.3011 145.818 17.0173C146.481 16.3686 147.045 15.8976 147.454 15.6494C148.223 15.1035 148.952 14.6822 149.671 14.3685C151.14 13.7913 152.641 13.4932 154.109 13.4932H176.203C177.009 13.4932 177.632 13.8361 178.106 14.5412C178.293 14.8693 178.396 15.2314 178.396 15.6195V19.6977H154.231C152.447 19.6977 150.964 20.4281 149.829 21.8682C149.094 22.834 148.727 23.9196 148.727 25.106V29.3251C148.727 30.743 149.235 32.0033 150.232 33.0767C150.737 33.5476 151.121 33.8402 151.429 34.0044C151.668 34.1693 152.008 34.3243 152.381 34.4244C152.986 34.6402 153.482 34.7532 153.859 34.7532H178.331V38.8951C178.331 39.4765 178.066 40.0032 177.521 40.5035C177.145 40.7839 176.7 40.9383 176.203 40.9383H154.066V40.9375Z" fill="#00AD68"/>
<path d="M175.361 29.7435H151.553V26.1549C151.553 25.3435 152.212 24.688 153.024 24.688H176.969V28.1383C176.969 29.0246 176.25 29.7435 175.361 29.7435Z" fill="#00AD68"/>
</svg>
