<svg width="44" height="44" viewBox="0 0 44 44" fill="none" xmlns="http://www.w3.org/2000/svg">
<g clip-path="url(#clip0_222_248)">
<path d="M30.7546 33.6524L24.7053 32.7734L22 27.2917L19.2947 32.7734L13.2455 33.6524L17.6227 37.9192L16.5894 43.944L22 41.0995L27.4106 43.944L26.3773 37.9192L30.7546 33.6524Z" fill="white"/>
<path d="M44 29.7643L38.7628 29.0032L36.4207 24.2576L34.0785 29.0032L28.8413 29.7643L32.631 33.4583L31.7364 38.6744L36.4207 36.2117L41.105 38.6744L40.2103 33.4583L44 29.7643Z" fill="white"/>
<path d="M15.1587 29.7643L9.92148 29.0032L7.57926 24.2576L5.2372 29.0032L0 29.7643L3.78967 33.4583L2.89506 38.6744L7.57926 36.2117L12.2636 38.6744L11.369 33.4583L15.1587 29.7643Z" fill="white"/>
<path d="M26.5123 15.6625C27.2468 14.7046 27.6848 13.5081 27.6848 12.2104C27.6848 9.07574 25.1346 6.52563 22 6.52563C18.8654 6.52563 16.3152 9.07574 16.3152 12.2104C16.3152 13.5081 16.7532 14.7046 17.4878 15.6625C15.2131 16.5086 13.588 18.7014 13.588 21.2673V26.3534H30.4121V21.2673C30.4121 18.7015 28.787 16.5087 26.5123 15.6625Z" fill="white"/>
<path d="M23.3029 0.0559082H20.6971V4.35442H23.3029V0.0559082Z" fill="white"/>
<path d="M14.3263 2.69461L12.4838 4.53711L15.5232 7.57658L17.3657 5.73409L14.3263 2.69461Z" fill="white"/>
<path d="M14.1437 10.9075H9.84521V13.5132H14.1437V10.9075Z" fill="white"/>
<path d="M34.1546 10.9075H29.8561V13.5132H34.1546V10.9075Z" fill="white"/>
<path d="M29.6729 2.69514L26.6334 5.73462L28.4759 7.57712L31.5154 4.53764L29.6729 2.69514Z" fill="white"/>
</g>
<defs>
<clipPath id="clip0_222_248">
<rect width="44" height="44" fill="white"/>
</clipPath>
</defs>
</svg>
