<svg width="138" height="44" viewBox="0 0 138 44" fill="none" xmlns="http://www.w3.org/2000/svg">
<path d="M44.7113 35.9703H43.9785V43.1181H44.7113V35.9703Z" fill="#00AD68"/>
<path d="M94.8081 35.9703H94.0758V43.1181H94.8081V35.9703Z" fill="#00AD68"/>
<path d="M2.34404 39.42H4.03401V40.2294C4.03401 40.6286 3.96615 40.9687 3.83283 41.2505C3.69819 41.5315 3.50353 41.7459 3.25188 41.8931C2.9961 42.0389 2.68943 42.1105 2.32686 42.1105C1.96124 42.1105 1.64935 42.043 1.39313 41.9041C1.13518 41.7652 0.938119 41.564 0.802617 41.3004C0.667114 41.0369 0.600342 40.7163 0.600342 40.3396V38.8562C0.600342 38.4559 0.667115 38.1177 0.80153 37.8373C0.935075 37.556 1.12909 37.344 1.38334 37.1967C1.63608 37.0508 1.94493 36.9771 2.30728 36.9771C2.60634 36.9771 2.87191 37.0357 3.10355 37.1536C3.33388 37.2713 3.52593 37.4416 3.67775 37.6631C3.82848 37.8832 3.93418 38.1532 3.994 38.4721H3.36259C3.28973 38.1701 3.15923 37.9423 2.97131 37.785C2.78274 37.6298 2.56219 37.5519 2.30728 37.5519C1.94906 37.5519 1.67283 37.6653 1.48122 37.8921C1.28786 38.121 1.19064 38.4414 1.19064 38.8562V40.3396C1.19064 40.7225 1.29004 41.0187 1.48644 41.2254C1.68567 41.4331 1.96537 41.5367 2.32686 41.5367C2.68008 41.5367 2.95195 41.4281 3.14335 41.2128C3.33388 40.9956 3.43067 40.6715 3.43067 40.2409V39.9865H2.34426L2.34404 39.42Z" fill="#939598"/>
<path d="M6.03479 37.0268H6.61791V42.0594H6.03479V37.0268ZM6.33364 39.9332V39.3635H7.99599C8.23241 39.3635 8.42207 39.2837 8.56584 39.1216C8.71048 38.9602 8.78138 38.7467 8.78334 38.479C8.78334 38.2116 8.71243 37.9972 8.56888 37.8358C8.42599 37.6742 8.23546 37.5928 7.99577 37.5928H6.33342V37.0268H7.96858C8.25177 37.0268 8.50102 37.0863 8.71439 37.2075C8.92602 37.3282 9.09197 37.4987 9.20812 37.7144C9.32535 37.9308 9.38364 38.1867 9.38364 38.4788C9.38364 38.7687 9.32535 39.0234 9.20703 39.2428C9.08827 39.4592 8.92276 39.629 8.71222 39.7502C8.49994 39.872 8.25155 39.933 7.96858 39.933L6.33364 39.9332ZM8.89535 42.0594L7.77762 39.777L8.34116 39.6164L9.58918 42.0594H8.89535Z" fill="#939598"/>
<path d="M10.8352 42.0594L12.6328 37.029H13.2157L15.0134 42.0594H14.3768L12.9243 37.7757L11.4729 42.0594H10.8352ZM11.6647 40.3294H14.2302V40.8965H11.6647V40.3294Z" fill="#939598"/>
<path d="M16.7128 37.0294H17.2959V42.0605H16.7128V37.0294ZM17.0647 40.1083V39.5414H18.6233C18.8808 39.5414 19.0859 39.4525 19.2421 39.2727C19.398 39.094 19.4741 38.8614 19.4741 38.5714C19.4741 38.2774 19.398 38.0411 19.2421 37.8635C19.0859 37.6859 18.8806 37.598 18.6233 37.598H17.0647V37.0296H18.5996C18.8952 37.0296 19.1516 37.0928 19.3713 37.2224C19.5903 37.3499 19.7606 37.5297 19.8817 37.7594C20.0046 37.9905 20.0651 38.2601 20.0651 38.5714C20.0651 38.8787 20.0046 39.1472 19.8817 39.3787C19.7604 39.6087 19.5903 39.7885 19.3713 39.9157C19.1516 40.0438 18.8954 40.1081 18.5996 40.1081H17.0647V40.1083Z" fill="#939598"/>
<path d="M21.881 37.029H22.4641V42.0594H21.881V37.029ZM22.2564 39.2922H25.0619V39.867H22.2564V39.2922ZM24.7511 37.029H25.3358V42.0594H24.7511V37.029Z" fill="#939598"/>
<path d="M28.1381 37.029H27.5541V42.0594H28.1381V37.029Z" fill="#939598"/>
<path d="M31.9517 42.1116C31.6128 42.1116 31.3144 42.0339 31.0597 41.8775C30.805 41.7223 30.6069 41.5038 30.4666 41.2221C30.3248 40.941 30.2548 40.6124 30.2548 40.2368V38.8562C30.2548 38.4773 30.3248 38.1476 30.4666 37.8665C30.6069 37.5859 30.8048 37.3669 31.0597 37.2114C31.3142 37.0556 31.6128 36.9771 31.9517 36.9771C32.2331 36.9771 32.4915 37.0372 32.7238 37.159C32.9596 37.2791 33.154 37.4489 33.3122 37.6694C33.4681 37.889 33.5758 38.1446 33.6321 38.4371H33.0412C32.9918 38.2603 32.9126 38.1034 32.8028 37.9725C32.6908 37.8388 32.5616 37.7369 32.413 37.6621C32.2636 37.5878 32.1098 37.5517 31.9517 37.5517C31.6181 37.5517 31.3523 37.6714 31.1491 37.9102C30.9458 38.1491 30.8446 38.4635 30.8446 38.856V40.2366C30.8446 40.6295 30.946 40.9441 31.1491 41.1801C31.3525 41.4179 31.6183 41.5365 31.9517 41.5365C32.1892 41.5365 32.4117 41.4608 32.6199 41.3065C32.8263 41.1524 32.9672 40.9356 33.0412 40.6518H33.6321C33.5758 40.9439 33.4681 41.1994 33.31 41.4199C33.151 41.6393 32.9565 41.8095 32.7238 41.9294C32.4896 42.0521 32.2334 42.1116 31.9517 42.1116Z" fill="#939598"/>
<path d="M36.8965 42.1116C36.6597 42.1116 36.4359 42.0891 36.2284 42.0421C36.0187 41.9952 35.824 41.9277 35.6411 41.8357C35.4595 41.7427 35.2881 41.6271 35.13 41.4887L35.4882 41.0211C35.6831 41.1968 35.898 41.3283 36.1316 41.4162C36.3658 41.5038 36.6208 41.5477 36.8963 41.5477C37.2824 41.5477 37.5812 41.4709 37.7935 41.3177C38.0041 41.1646 38.11 40.9495 38.11 40.6715V40.6693C38.11 40.4681 38.0573 40.3149 37.9529 40.2069C37.8475 40.1007 37.7098 40.018 37.541 39.9648C37.3709 39.9105 37.186 39.8657 36.9859 39.8292C36.7963 39.7926 36.606 39.7528 36.4165 39.7058C36.2242 39.6608 36.0489 39.5927 35.8908 39.5027C35.7327 39.4137 35.6046 39.2848 35.5067 39.1186C35.4095 38.9531 35.3601 38.7326 35.3601 38.4542V38.452C35.3601 37.9823 35.5119 37.6216 35.814 37.3635C36.1155 37.1069 36.5405 36.9773 37.091 36.9773C37.3505 36.9773 37.6054 37.0212 37.8553 37.1069C38.1058 37.1947 38.3512 37.3265 38.5896 37.503L38.2548 37.9782C38.0547 37.8313 37.8594 37.72 37.6687 37.6495C37.4764 37.5768 37.2824 37.5413 37.0908 37.5413C36.7243 37.5413 36.44 37.6196 36.2397 37.7728C36.0376 37.9269 35.9378 38.1469 35.9378 38.4308V38.434C35.9378 38.6331 35.9952 38.783 36.1101 38.8882C36.2249 38.9916 36.3741 39.0699 36.5618 39.1212C36.7467 39.1725 36.9446 39.221 37.1543 39.2651C37.3381 39.3021 37.5205 39.346 37.7032 39.3999C37.8849 39.4542 38.0495 39.5258 38.1981 39.6214C38.3451 39.7164 38.4638 39.8452 38.5532 40.0109C38.6437 40.1743 38.6877 40.3876 38.6877 40.6487V40.6561C38.6877 41.1195 38.5306 41.4781 38.2185 41.7314C37.9047 41.9856 37.4636 42.1116 36.8965 42.1116Z" fill="#939598"/>
<path d="M51.927 42.1116C51.6902 42.1116 51.4664 42.0891 51.2589 42.0421C51.0503 41.9952 50.8543 41.9277 50.6714 41.8357C50.4898 41.7427 50.3184 41.6271 50.1603 41.4887L50.5196 41.0211C50.7136 41.1968 50.9283 41.3283 51.1621 41.4162C51.3974 41.5038 51.6525 41.5477 51.927 41.5477C52.3131 41.5477 52.6119 41.4709 52.8242 41.3177C53.0348 41.1646 53.1405 40.9495 53.1405 40.6715V40.6693C53.1405 40.4681 53.0891 40.3149 52.9845 40.2069C52.8788 40.1007 52.7403 40.018 52.5717 39.9648C52.4014 39.9105 52.2165 39.8657 52.0164 39.8292C51.8279 39.7926 51.6364 39.7528 51.447 39.7058C51.2547 39.6608 51.0792 39.5927 50.9213 39.5027C50.7632 39.4137 50.6351 39.2848 50.5372 39.1186C50.44 38.9531 50.3917 38.7326 50.3917 38.4542V38.452C50.3917 37.9823 50.5424 37.6216 50.845 37.3635C51.146 37.1069 51.571 36.9773 52.123 36.9773C52.382 36.9773 52.6367 37.0212 52.8866 37.1069C53.1372 37.1947 53.3815 37.3265 53.6211 37.503L53.2864 37.9782C53.0859 37.8313 52.891 37.72 52.6992 37.6495C52.5069 37.5768 52.3131 37.5413 52.123 37.5413C51.7548 37.5413 51.4722 37.6196 51.271 37.7728C51.0688 37.9269 50.9685 38.1469 50.9685 38.4308V38.434C50.9685 38.6331 51.0257 38.783 51.1408 38.8882C51.2558 38.9916 51.4068 39.0699 51.5925 39.1212C51.7776 39.1725 51.9755 39.221 52.1852 39.2651C52.3696 39.3021 52.5515 39.346 52.734 39.3999C52.9158 39.4542 53.0811 39.5258 53.2288 39.6214C53.3758 39.7164 53.4946 39.8452 53.5837 40.0109C53.6742 40.1743 53.7184 40.3876 53.7184 40.6487V40.6561C53.7184 41.1195 53.5613 41.4781 53.2494 41.7314C52.9351 41.9856 52.4938 42.1116 51.927 42.1116Z" fill="#939598"/>
<path d="M56.2176 37.029H55.6345V42.0594H56.2176V37.029Z" fill="#939598"/>
<path d="M60.0801 39.42H61.7699V40.2294C61.7699 40.6286 61.702 40.9687 61.5687 41.2505C61.4343 41.5315 61.2398 41.7459 60.9877 41.8931C60.7319 42.0389 60.4253 42.1105 60.0627 42.1105C59.6971 42.1105 59.3852 42.043 59.129 41.9041C58.8708 41.7652 58.674 41.564 58.5385 41.3004C58.403 41.0371 58.3362 40.7163 58.3362 40.3396V38.8562C58.3362 38.4559 58.403 38.1177 58.5374 37.8373C58.6707 37.556 58.8656 37.344 59.1194 37.1967C59.3719 37.0508 59.681 36.9771 60.0433 36.9771C60.3422 36.9771 60.608 37.0357 60.8396 37.1536C61.0699 37.2713 61.2624 37.4416 61.4138 37.6631C61.5645 37.8832 61.67 38.1532 61.7301 38.4721H61.0986C61.0256 38.1701 60.8944 37.9423 60.7074 37.785C60.5188 37.6298 60.2989 37.5519 60.0436 37.5519C59.6853 37.5519 59.4089 37.6653 59.2173 37.8921C59.0239 38.121 58.9267 38.4414 58.9267 38.8562V40.3396C58.9267 40.7225 59.0259 41.0187 59.2229 41.2254C59.4215 41.4331 59.7012 41.5367 60.0627 41.5367C60.4157 41.5367 60.6878 41.4281 60.879 41.2128C61.0697 40.9956 61.1663 40.6715 61.1663 40.2409V39.9865H60.0799V39.42H60.0801Z" fill="#939598"/>
<path d="M63.7709 42.0564V37.0301H64.3235L66.9314 41.2401L66.7924 41.215V37.0301H67.3722V42.0564H66.8117L64.1793 37.8561L64.3507 37.9104V42.0564H63.7709Z" fill="#939598"/>
<path d="M69.0045 42.0594L70.8019 37.029H71.3844L73.1827 42.0594H72.5441L71.0925 37.7757L69.6414 42.0594H69.0045ZM69.8319 40.3294H72.3975V40.8965H69.8319V40.3294Z" fill="#939598"/>
<path d="M76.2555 39.42H77.9444V40.2294C77.9444 40.6286 77.8776 40.9687 77.7443 41.2505C77.6099 41.5315 77.4148 41.7459 77.1631 41.8931C76.9074 42.0389 76.5996 42.1105 76.2381 42.1105C75.8725 42.1105 75.5608 42.043 75.3033 41.9041C75.0462 41.7652 74.8494 41.564 74.7139 41.3004C74.5784 41.0369 74.5116 40.7163 74.5116 40.3396V38.8562C74.5116 38.4559 74.5784 38.1177 74.7126 37.8373C74.8461 37.556 75.0412 37.344 75.2948 37.1967C75.5473 37.0508 75.8562 36.9771 76.2188 36.9771C76.5174 36.9771 76.7836 37.0357 77.015 37.1536C77.2451 37.2713 77.4372 37.4416 77.5884 37.6631C77.7402 37.8832 77.8457 38.1532 77.9044 38.4721H77.2743C77.2012 38.1701 77.0696 37.9423 76.8826 37.785C76.6942 37.6298 76.4737 37.5519 76.2188 37.5519C75.8603 37.5519 75.5843 37.6653 75.3925 37.8921C75.1989 38.121 75.101 38.4414 75.101 38.8562V40.3396C75.101 40.7225 75.2011 41.0187 75.3975 41.2254C75.5967 41.4331 75.8766 41.5367 76.2379 41.5367C76.5911 41.5367 76.8632 41.4281 77.0544 41.2128C77.2449 40.9956 77.3415 40.6715 77.3415 40.2409V39.9865H76.2553V39.42H76.2555Z" fill="#939598"/>
<path d="M79.9463 37.029H80.5294V42.0594H79.9463V37.029ZM80.2778 37.029H83.077V37.5959H80.2778V37.029ZM80.2778 39.2785H82.709V39.8456H80.2778V39.2785ZM80.2778 41.4915H83.077V42.0584H80.2778V41.4915Z" fill="#939598"/>
<path d="M86.4763 42.1116C86.2392 42.1116 86.0156 42.0891 85.8081 42.0421C85.5995 41.9952 85.4035 41.9277 85.2208 41.8357C85.039 41.7427 84.8676 41.6271 84.7097 41.4887L85.0688 41.0211C85.2628 41.1968 85.4777 41.3283 85.7113 41.4162C85.9466 41.5038 86.2013 41.5477 86.4763 41.5477C86.8621 41.5477 87.1609 41.4709 87.3734 41.3177C87.5842 41.1646 87.6895 40.9495 87.6895 40.6715V40.6693C87.6895 40.4681 87.6381 40.3149 87.5335 40.2069C87.4278 40.1007 87.2893 40.018 87.1201 39.9648C86.9504 39.9105 86.7655 39.8657 86.5652 39.8292C86.3769 39.7926 86.1857 39.7528 85.9962 39.7058C85.8037 39.6608 85.6284 39.5927 85.4701 39.5027C85.312 39.4137 85.1839 39.2848 85.086 39.1186C84.989 38.9531 84.9405 38.7326 84.9405 38.4542V38.452C84.9405 37.9823 85.0914 37.6216 85.3935 37.3635C85.695 37.1069 86.1198 36.9773 86.6716 36.9773C86.93 36.9773 87.1855 37.0212 87.4359 37.1069C87.6862 37.1947 87.9305 37.3265 88.1701 37.503L87.8356 37.9782C87.6344 37.8313 87.4402 37.72 87.2486 37.6495C87.0561 37.5768 86.8623 37.5413 86.6718 37.5413C86.304 37.5413 86.0208 37.6196 85.8196 37.7728C85.6173 37.9269 85.5175 38.1469 85.5175 38.4308V38.434C85.5175 38.6331 85.5747 38.783 85.69 38.8882C85.8048 38.9916 85.9553 39.0699 86.1415 39.1212C86.3266 39.1725 86.5245 39.221 86.734 39.2651C86.918 39.3021 87.1005 39.346 87.283 39.3999C87.4648 39.4542 87.6301 39.5258 87.7778 39.6214C87.9246 39.7164 88.0436 39.8452 88.1327 40.0109C88.2232 40.1743 88.2671 40.3876 88.2671 40.6487V40.6561C88.2671 41.1195 88.1101 41.4781 87.7982 41.7314C87.4837 41.9856 87.0428 42.1116 86.4763 42.1116Z" fill="#939598"/>
<path d="M101.973 37.0294H102.556V42.0605H101.973V37.0294ZM102.325 40.1083V39.5414H103.883C104.141 39.5414 104.346 39.4525 104.503 39.2727C104.658 39.094 104.735 38.8614 104.735 38.5714C104.735 38.2774 104.658 38.0411 104.503 37.8635C104.346 37.6859 104.141 37.598 103.883 37.598H102.325V37.0296H103.861C104.156 37.0296 104.412 37.0928 104.632 37.2224C104.851 37.3499 105.022 37.5297 105.142 37.7594C105.265 37.9905 105.325 38.2601 105.325 38.5714C105.325 38.8787 105.265 39.1472 105.142 39.3787C105.022 39.6087 104.851 39.7885 104.632 39.9157C104.412 40.0438 104.156 40.1081 103.861 40.1081H102.325V40.1083Z" fill="#939598"/>
<path d="M107.141 37.0268H107.724V42.0594H107.141V37.0268ZM107.441 39.9332V39.3635H109.104C109.339 39.3635 109.53 39.2837 109.673 39.1216C109.817 38.9602 109.888 38.7467 109.891 38.479C109.891 38.2116 109.82 37.9972 109.676 37.8358C109.533 37.6742 109.342 37.5928 109.104 37.5928H107.441V37.0268H109.076C109.36 37.0268 109.609 37.0863 109.821 37.2075C110.033 37.3282 110.199 37.4987 110.316 37.7144C110.432 37.9308 110.491 38.1867 110.491 38.4788C110.491 38.7687 110.432 39.0234 110.314 39.2428C110.195 39.4592 110.03 39.629 109.82 39.7502C109.607 39.872 109.36 39.933 109.076 39.933L107.441 39.9332ZM110.002 42.0594L108.885 39.777L109.448 39.6164L110.696 42.0594H110.002Z" fill="#939598"/>
<path d="M113.214 37.029H112.63V42.0594H113.214V37.029Z" fill="#939598"/>
<path d="M115.432 42.0564V37.0301H115.985L118.593 41.2401L118.454 41.215V37.0301H119.034V42.0564H118.473L115.841 37.8561L116.012 37.9104V42.0564H115.432Z" fill="#939598"/>
<path d="M120.799 37.029H124.239V37.5959H120.799V37.029ZM122.228 37.3373H122.812V42.0612H122.228V37.3373Z" fill="#939598"/>
<path d="M126.506 37.029H125.922V42.0594H126.506V37.029Z" fill="#939598"/>
<path d="M128.724 42.0564V37.0301H129.277L131.885 41.2401L131.746 41.215V37.0301H132.325V42.0564H131.765L129.133 37.8561L129.304 37.9104V42.0564H128.724Z" fill="#939598"/>
<path d="M136.137 39.42H137.826V40.2294C137.826 40.6286 137.759 40.9687 137.626 41.2505C137.491 41.5315 137.296 41.7459 137.044 41.8931C136.789 42.0389 136.481 42.1105 136.12 42.1105C135.754 42.1105 135.442 42.043 135.185 41.9041C134.927 41.7652 134.731 41.564 134.595 41.3004C134.46 41.0369 134.393 40.7163 134.393 40.3396V38.8562C134.393 38.4559 134.46 38.1177 134.594 37.8373C134.727 37.556 134.921 37.344 135.176 37.1967C135.429 37.0508 135.738 36.9771 136.099 36.9771C136.399 36.9771 136.665 37.0357 136.896 37.1536C137.127 37.2713 137.319 37.4416 137.47 37.6631C137.62 37.8832 137.727 38.1532 137.786 38.4721H137.156C137.083 38.1701 136.951 37.9423 136.764 37.785C136.576 37.6298 136.354 37.5519 136.099 37.5519C135.742 37.5519 135.466 37.6653 135.273 37.8921C135.079 38.121 134.982 38.4414 134.982 38.8562V40.3396C134.982 40.7225 135.083 41.0187 135.279 41.2254C135.478 41.4331 135.757 41.5367 136.12 41.5367C136.472 41.5367 136.745 41.4281 136.936 41.2128C137.126 40.9956 137.223 40.6715 137.223 40.2409V39.9865H136.137V39.42H136.137Z" fill="#939598"/>
<path d="M5.03823 6.74672C4.91121 6.74672 4.79398 6.69544 4.68001 6.59158C4.57017 6.45051 4.53124 6.35337 4.53124 6.2547V1.62322H0.926392V0.855782C0.926392 0.727262 0.927263 0.634224 0.930525 0.581864L0.942705 0.530153C0.966195 0.423486 1.00621 0.339971 1.06189 0.280904C1.14911 0.205177 1.18369 0.187868 1.19109 0.184839C1.26982 0.133777 1.36117 0.11322 1.48254 0.11322H9.22945C9.38432 0.11322 9.50894 0.158226 9.60921 0.250181C9.68425 0.321797 9.70469 0.357281 9.70883 0.366801C9.77147 0.49121 9.7856 0.559579 9.7856 0.598308V1.62344H6.04939V6.74693L5.03823 6.74672Z" fill="#00AD68"/>
<path d="M17.7192 6.74672V5.11577C17.7192 4.94549 17.6955 4.82065 17.6483 4.72761C17.63 4.68369 17.5952 4.61943 17.5491 4.55106C17.3694 4.3388 17.1506 4.23949 16.8898 4.23949H11.9113V6.74672H10.9086C10.7687 6.74672 10.6448 6.69241 10.5371 6.58012C10.4466 6.48124 10.4025 6.35942 10.4025 6.20429V0.662787C10.4025 0.437985 10.4938 0.28177 10.6887 0.168395C10.7596 0.133344 10.8338 0.113007 10.8992 0.113007H11.911V1.94712C11.911 2.15721 11.9893 2.34739 12.1475 2.50772C12.3065 2.66588 12.5098 2.7455 12.7543 2.7455H17.6241L17.7092 2.65658L17.7192 2.58821V0.113007H18.7355C18.8423 0.113007 18.952 0.162122 19.0681 0.262298C19.1699 0.361176 19.221 0.487098 19.221 0.641581V6.23285C19.221 6.42131 19.1453 6.56151 18.9798 6.67488C18.9 6.72075 18.8119 6.7465 18.7162 6.7465H17.7192V6.74672Z" fill="#00AD68"/>
<path d="M20.8739 6.74672C20.8565 6.74672 20.8145 6.74369 20.7314 6.71491C20.6018 6.66666 20.5037 6.58011 20.4359 6.4503C20.4091 6.38517 20.3928 6.30512 20.3928 6.21944V2.72213C20.3895 2.55164 20.3876 2.00056 20.3876 1.06998V0.611723C20.3876 0.530154 20.4154 0.439281 20.4726 0.344081C20.5263 0.267272 20.5931 0.205177 20.6708 0.168395C20.7521 0.132262 20.7791 0.128583 20.7826 0.128583C20.8145 0.120145 20.8311 0.116036 20.873 0.113007H27.6997C27.872 0.113007 28.0075 0.176184 28.1171 0.30319C28.1643 0.360093 28.1987 0.431711 28.2213 0.520636C28.225 0.539893 28.2302 0.578621 28.2302 0.656296V1.52846H21.8946V2.82426H27.5683C27.7967 2.82426 27.9807 3.00882 27.9807 3.23556V4.0307H21.9929L21.9049 4.1179L21.9001 4.18346V5.39055H28.2302V6.24908C28.2302 6.3657 28.1871 6.47583 28.0956 6.58098C28.0257 6.65152 27.999 6.66666 27.9962 6.66666C27.9048 6.72313 27.8072 6.74672 27.6899 6.74672H20.8739Z" fill="#00AD68"/>
<path d="M9.49938 30.9779C7.66107 30.9779 5.91389 30.4078 4.30874 29.2797C4.0323 29.0869 3.65059 28.7576 3.1536 28.2922C2.54221 27.6375 2.26272 27.2465 2.13875 27.039C1.82881 26.5615 1.60196 26.1634 1.45166 25.8252C0.885294 24.6569 0.600586 23.3427 0.600586 21.9052V18.9966C0.600586 17.4323 0.946846 16.0026 1.62436 14.7505C1.81489 14.3712 2.06349 13.9583 2.37865 13.4927C2.37865 13.4927 2.95133 12.8313 3.14882 12.6134C3.65994 12.1154 4.09385 11.7538 4.40901 11.5632C5.00039 11.1441 5.56307 10.8206 6.11508 10.5798C7.2476 10.1367 8.40318 9.90781 9.53266 9.90781H26.5429C27.1647 9.90781 27.6443 10.1711 28.0086 10.7125C28.1526 10.9643 28.2314 11.2423 28.2314 11.5403V14.6713H9.62618C8.25245 14.6713 7.11123 15.2321 6.23753 16.3377C5.6729 17.0792 5.38972 17.9126 5.38972 18.8235V22.0627C5.38972 23.1512 5.77948 24.1188 6.54747 24.9429C6.9368 25.3045 7.23194 25.529 7.46924 25.6552C7.65324 25.7818 7.91468 25.9008 8.20221 25.9776C8.6681 26.1433 9.0509 26.2301 9.34148 26.2301H28.1813V29.41C28.1813 29.8563 27.9782 30.2607 27.5573 30.6447C27.2696 30.86 26.9261 30.9786 26.5429 30.9786H9.49938V30.9779Z" fill="#00AD68"/>
<path d="M44.7176 30.979C42.7866 30.979 40.977 30.3754 39.3418 29.1873C39.0771 28.9829 38.6898 28.6298 38.1899 28.1423C37.7141 27.6327 37.3782 27.2067 37.2066 26.8934C36.2396 25.3999 35.7552 23.7748 35.7552 22.0311V18.8542C35.7552 16.8131 36.4214 14.9341 37.7367 13.2666C37.9211 13.0583 38.2456 12.705 38.6965 12.2257C39.0904 11.8882 39.4623 11.6143 39.7627 11.4399C41.3193 10.4189 42.9697 9.90781 44.6878 9.90781H56.0739C57.882 9.90781 59.5991 10.4585 61.1749 11.5448C61.4448 11.7129 61.768 11.9706 62.1558 12.327L62.3264 12.4628C62.8327 13.044 63.2018 13.4849 63.4297 13.7943C64.4711 15.3249 65.0057 17.053 65.0057 18.9204V21.9694C65.0057 24.1703 64.2786 26.1587 62.8425 27.8757C62.4068 28.3487 62.036 28.6994 61.7537 28.9011C61.2288 29.3405 60.7101 29.6863 60.182 29.9528C58.874 30.6341 57.4824 30.979 56.0432 30.979H44.7176ZM44.7811 14.6717C43.4036 14.6717 42.2528 15.2537 41.3589 16.4033C41.0929 16.7769 40.9222 17.0893 40.8252 17.3784C40.6436 17.788 40.5437 18.3456 40.5437 18.9962V21.8727C40.5437 22.7384 40.7349 23.4757 41.1084 24.0679C41.1451 24.2231 41.3589 24.5292 41.7302 24.939C42.5852 25.7991 43.6181 26.2307 44.8119 26.2307H55.9462C57.333 26.2307 58.4755 25.6632 59.3392 24.5461C59.5824 24.2356 59.7773 23.9106 59.9243 23.5779C60.1203 23.1012 60.2175 22.5086 60.2175 21.8102V19.126C60.2175 18.3683 60.1324 17.8023 59.9539 17.4031C59.5956 16.4913 58.9727 15.7643 58.1112 15.2576C57.4587 14.8708 56.7425 14.6717 55.9797 14.6717H44.7811Z" fill="#00AD68"/>
<path d="M73.6262 30.9775V11.6491C73.6262 11.2802 73.6765 11.077 73.7189 10.973C73.7598 10.8585 73.8174 10.7421 73.9038 10.6047C73.9466 10.5461 74.0125 10.4708 74.0895 10.4039C74.4534 10.0673 74.8344 9.90802 75.2647 9.90802H91.3723C93.4668 9.90802 95.2968 10.2356 96.808 10.8819C97.1243 11.0074 97.3644 11.1097 97.5386 11.1902C97.7624 11.3172 98.0326 11.4842 98.316 11.6735C99.6471 12.4819 100.591 13.6206 101.143 15.0715C101.437 15.8433 101.588 16.68 101.588 17.5584V17.7644C101.588 18.8183 101.364 19.8222 100.92 20.7554C100.784 21.0131 100.606 21.3182 100.392 21.6531C100.229 21.8617 100.013 22.1179 99.7599 22.3924C99.634 22.5363 99.52 22.6538 99.4071 22.7568L99.2329 22.9318L98.906 23.1815C98.7407 23.3003 98.5089 23.4513 98.2359 23.6231L98.0756 23.7239L97.0388 24.2335C96.6682 24.3845 96.2473 24.5277 95.8086 24.6614L95.0672 24.8841L95.6052 25.4384C96.9026 26.771 97.7998 27.7474 98.2757 28.3428L99.2586 29.4526C99.714 29.9747 100.156 30.4725 100.581 30.9455H94.7877C94.3725 30.9455 94.1476 30.8916 94.0334 30.8514L93.7787 30.6904C93.5979 30.5718 93.3846 30.3565 93.1421 30.0506C92.1261 28.85 91.0656 27.554 89.9476 26.1468L89.2516 25.2575H89.0204C88.9491 25.2575 88.8664 25.269 88.7244 25.3003C88.5709 25.2982 88.3051 25.2945 87.9327 25.2945C86.9677 25.2945 85.2779 25.3066 82.9026 25.3218H78.3993V29.3786C78.3993 29.9069 78.1713 30.3438 77.7022 30.7174C77.456 30.8862 77.1491 30.9773 76.7911 30.9773L73.6262 30.9775ZM78.3995 20.5884H91.8788C93.0026 20.5884 93.8465 20.393 94.4597 19.9906C94.9099 19.7048 95.2527 19.3108 95.4706 18.8278C95.645 18.4693 95.7353 18.0498 95.7353 17.592C95.7353 16.6661 95.3112 15.8907 94.4766 15.2825C94.3392 15.1892 94.2048 15.1114 94.0658 15.0473C93.7519 14.8911 93.4246 14.7946 92.9859 14.7124C92.781 14.7026 92.6218 14.6942 92.4165 14.6736L78.3995 14.6728V20.5884Z" fill="#00AD68"/>
<path d="M119.095 30.9779C117.257 30.9779 115.51 30.4078 113.904 29.2797C113.628 29.0869 113.246 28.7576 112.749 28.2922C112.138 27.6375 111.858 27.2465 111.734 27.039C111.423 26.5615 111.196 26.1634 111.047 25.8252C110.48 24.6569 110.196 23.3427 110.196 21.9052V18.9966C110.196 17.4323 110.542 16.0026 111.22 14.7505C111.411 14.3712 111.659 13.9583 111.974 13.4927C111.974 13.4927 112.547 12.8313 112.744 12.6134C113.256 12.1154 113.689 11.7538 114.005 11.5632C114.596 11.1441 115.158 10.8206 115.711 10.5798C116.842 10.1367 117.998 9.90781 119.128 9.90781H136.139C136.759 9.90781 137.239 10.1711 137.604 10.7125C137.748 10.9643 137.827 11.2423 137.827 11.5403V14.6713H119.222C117.848 14.6713 116.707 15.2321 115.833 16.3377C115.267 17.0792 114.984 17.9126 114.984 18.8235V22.0627C114.984 23.1512 115.375 24.1188 116.143 24.9429C116.532 25.3045 116.827 25.529 117.065 25.6552C117.249 25.7818 117.51 25.9008 117.798 25.9776C118.264 26.1433 118.645 26.2301 118.936 26.2301H137.777V29.41C137.777 29.8563 137.573 30.2607 137.153 30.6447C136.864 30.86 136.521 30.9786 136.138 30.9786H119.095V30.9779Z" fill="#00AD68"/>
<path d="M135.49 22.3838H117.16V19.6286C117.16 19.0057 117.668 18.5024 118.292 18.5024H136.728V21.1514C136.728 21.8318 136.174 22.3838 135.49 22.3838Z" fill="#00AD68"/>
</svg>
