<svg width="32" height="32" viewBox="0 0 32 32" fill="none" xmlns="http://www.w3.org/2000/svg">
<path fill-rule="evenodd" clip-rule="evenodd" d="M30 23C30 24.104 29.104 25 28 25H26C25.554 23.277 23.862 22 22 22H10C8.138 22 6.446 23.277 6 25H4C2.896 25 2 24.104 2 23V21C2 19.896 2.896 19 4 19H28C29.104 19 30 19.896 30 21V23ZM28 17H4C1.791 17 0 18.791 0 21V23C0 25.209 1.791 27 4 27H6C6.446 28.723 8.138 30 10 30H22C23.862 30 25.554 28.723 26 27H28C30.209 27 32 25.209 32 23V21C32 18.791 30.209 17 28 17ZM26 6C26 3.791 24.209 2 22 2H10C7.791 2 6 3.791 6 6V15H26V6Z" fill="#00AD68"/>
</svg>
