<svg width="47" height="47" viewBox="0 0 47 47" fill="none" xmlns="http://www.w3.org/2000/svg">
<path d="M20.7126 17.0456C21.9528 14.8207 22.573 13.7083 23.5 13.7083C24.4271 13.7083 25.0473 14.8207 26.2875 17.0456L26.6085 17.6212C26.9608 18.2535 27.1371 18.5696 27.4118 18.7782C27.6866 18.9868 28.0289 19.0642 28.7133 19.219L29.3363 19.36C31.7448 19.905 32.949 20.1774 33.2355 21.0988C33.522 22.02 32.7011 22.98 31.0592 24.9001L30.6343 25.3968C30.1678 25.9424 29.9345 26.2151 29.8296 26.5528C29.7246 26.8902 29.7599 27.2542 29.8304 27.9822L29.8946 28.6449C30.1429 31.2065 30.2669 32.4875 29.5168 33.0568C28.7668 33.6263 27.6394 33.1071 25.3844 32.0688L24.801 31.8001C24.16 31.5052 23.8396 31.3575 23.5 31.3575C23.1605 31.3575 22.8401 31.5052 22.1991 31.8001L21.6157 32.0688C19.3608 33.1071 18.2333 33.6263 17.4832 33.0568C16.7331 32.4875 16.8573 31.2065 17.1055 28.6449L17.1697 27.9822C17.2403 27.2542 17.2755 26.8902 17.1706 26.5528C17.0656 26.2151 16.8323 25.9424 16.3658 25.3968L15.941 24.9001C14.299 22.98 13.4781 22.02 13.7646 21.0988C14.0511 20.1774 15.2553 19.905 17.6638 19.36L18.2868 19.219C18.9713 19.0642 19.3135 18.9868 19.5883 18.7782C19.863 18.5696 20.0393 18.2535 20.3916 17.6212L20.7126 17.0456Z" fill="white"/>
<path fill-rule="evenodd" clip-rule="evenodd" d="M23.5 2.448C24.3111 2.448 24.9687 3.10559 24.9687 3.91675V7.83341C24.9687 8.64458 24.3111 9.30216 23.5 9.30216C22.6888 9.30216 22.0312 8.64458 22.0312 7.83341V3.91675C22.0312 3.10559 22.6888 2.448 23.5 2.448ZM36.2887 10.7113C36.8623 11.2849 36.8623 12.2148 36.2887 12.7884L35.6166 13.4606C35.043 14.0342 34.1129 14.0342 33.5394 13.4606C32.9658 12.887 32.9658 11.9571 33.5394 11.3835L34.2117 10.7113C34.7852 10.1377 35.7153 10.1377 36.2887 10.7113ZM10.7114 10.7115C11.285 10.1379 12.2149 10.1379 12.7885 10.7115L13.4607 11.3837C14.0343 11.9573 14.0343 12.8873 13.4607 13.4609C12.8872 14.0344 11.9572 14.0344 11.3836 13.4609L10.7114 12.7886C10.1378 12.2151 10.1378 11.2851 10.7114 10.7115ZM2.44788 23.5001C2.44788 22.6889 3.10546 22.0313 3.91663 22.0313H7.83329C8.64445 22.0313 9.30204 22.6889 9.30204 23.5001C9.30204 24.3112 8.64445 24.9688 7.83329 24.9688H3.91663C3.10546 24.9688 2.44788 24.3112 2.44788 23.5001ZM37.6979 23.5001C37.6979 22.6889 38.3555 22.0313 39.1666 22.0313H43.0833C43.8944 22.0313 44.552 22.6889 44.552 23.5001C44.552 24.3112 43.8944 24.9688 43.0833 24.9688H39.1666C38.3555 24.9688 37.6979 24.3112 37.6979 23.5001ZM13.4605 33.5395C14.0341 34.1131 14.0341 35.0431 13.4605 35.6167L12.7887 36.2884C12.2151 36.862 11.2852 36.862 10.7116 36.2884C10.138 35.7148 10.138 34.785 10.7116 34.2114L11.3834 33.5395C11.957 32.9659 12.8869 32.9659 13.4605 33.5395ZM33.5394 33.5399C34.1129 32.9665 35.043 32.9665 35.6166 33.5399L36.2883 34.2118C36.8619 34.7854 36.8619 35.7154 36.2883 36.289C35.7147 36.8624 34.7847 36.8624 34.2111 36.289L33.5394 35.6171C32.9658 35.0435 32.9658 34.1135 33.5394 33.5399ZM23.5 37.698C24.3111 37.698 24.9687 38.3556 24.9687 39.1667V43.0834C24.9687 43.8946 24.3111 44.5522 23.5 44.5522C22.6888 44.5522 22.0312 43.8946 22.0312 43.0834V39.1667C22.0312 38.3556 22.6888 37.698 23.5 37.698Z" fill="white"/>
</svg>
