<svg width="33" height="33" viewBox="0 0 33 33" fill="none" xmlns="http://www.w3.org/2000/svg">
<path d="M31.5189 19.276L19.276 31.5189C19.1681 31.6266 19.0553 31.7292 18.9381 31.8254C18.853 31.8954 18.7657 31.962 18.6762 32.0253C18.0376 32.476 17.2894 32.75 16.5 32.75C16.5 31.8537 16.5 31.0459 16.5049 30.3125C16.5249 27.3326 16.6261 25.582 17.1383 24.118C18.2817 20.8506 20.8506 18.2817 24.118 17.1383C25.582 16.6261 27.3326 16.5249 30.3125 16.5049C31.0459 16.5 31.8537 16.5 32.75 16.5C32.75 17.2894 32.476 18.0376 32.0253 18.6762C31.962 18.7657 31.8954 18.853 31.8254 18.9381C31.7292 19.0553 31.6266 19.1681 31.5189 19.276Z" fill="#00AD68"/>
<path fill-rule="evenodd" clip-rule="evenodd" d="M16.5 0.25C7.52537 0.25 0.25 7.52537 0.25 16.5C0.25 24.1469 5.5319 30.5602 12.6464 32.2903C13.3847 32.4699 14.0625 31.8849 14.0625 31.125C14.0617 28.3593 14.0609 27.356 14.3089 25.5828C13.0627 25.2809 11.909 24.7275 10.8993 23.9791C10.3585 23.5783 10.2451 22.8151 10.6459 22.2743C11.0467 21.7335 11.81 21.6201 12.3507 22.0209C13.1041 22.5793 13.9569 22.9881 14.8735 23.2116C15.9304 20.2651 17.9448 17.794 20.5511 16.1639C20.0718 15.7402 19.75 14.9577 19.75 14.0625C19.75 12.7163 20.4775 11.625 21.375 11.625C22.2725 11.625 23 12.7163 23 14.0625C23 14.3943 22.9558 14.7106 22.8757 14.999C23.0203 14.9428 23.1661 14.889 23.313 14.8376C25.5347 14.0602 27.0796 14.0612 31.125 14.0625C31.8849 14.0625 32.4699 13.3847 32.2903 12.6464C30.5602 5.5319 24.1469 0.25 16.5 0.25ZM11.625 16.5C12.5225 16.5 13.25 15.4087 13.25 14.0625C13.25 12.7163 12.5225 11.625 11.625 11.625C10.7275 11.625 10 12.7163 10 14.0625C10 15.4087 10.7275 16.5 11.625 16.5Z" fill="#00AD68"/>
</svg>
