<svg width="37" height="27" viewBox="0 0 37 27" fill="none" xmlns="http://www.w3.org/2000/svg">
<path d="M31.5043 15.5821C33.8536 15.5821 35.7585 13.6784 35.7585 11.3291C35.7585 8.9797 33.8535 7.07471 31.5043 7.07471C29.1555 7.07471 27.2505 8.9797 27.2505 11.3291C27.2506 13.6784 29.1555 15.5821 31.5043 15.5821Z" fill="white"/>
<path d="M36.9514 19.6814C36.7618 18.5423 35.8203 16.9482 35.1076 16.236C35.0137 16.1416 34.5942 16.1198 34.4808 16.19C33.6144 16.7229 32.5966 17.0365 31.5042 17.0365C30.4131 17.0365 29.3952 16.7229 28.5287 16.19C28.4149 16.1198 27.9959 16.1416 27.902 16.236C27.7028 16.4352 27.4854 16.7004 27.2734 17.008C27.8469 18.0877 28.3016 19.2345 28.4657 20.2221C28.6298 21.2121 28.5765 22.1494 28.3112 23.0039C29.2534 23.3448 30.3833 23.4943 31.5042 23.4943C34.4277 23.4943 37.4194 22.4807 36.9514 19.6814Z" fill="white"/>
<path d="M18.3907 13.7874C22.1982 13.7874 25.2851 10.7005 25.2851 6.89312C25.2851 3.08689 22.1982 0 18.3907 0C14.5839 0 11.4982 3.08689 11.4982 6.89312C11.4982 10.7005 14.5838 13.7874 18.3907 13.7874Z" fill="white"/>
<path d="M24.2285 14.8433C24.0789 14.6943 23.3995 14.6563 23.2148 14.7706C21.8094 15.6353 20.16 16.1415 18.3907 16.1415C16.6226 16.1415 14.9725 15.6353 13.5678 14.7706C13.3832 14.6562 12.7038 14.6943 12.5542 14.8433C11.3965 15.9998 9.87059 18.5853 9.56361 20.4285C8.8067 24.9687 13.6563 26.6078 18.3907 26.6078C23.1264 26.6078 27.9759 24.9687 27.219 20.4285C26.912 18.5853 25.3861 15.9998 24.2285 14.8433Z" fill="white"/>
<path d="M5.4958 15.5821C7.84457 15.5821 9.74949 13.6784 9.74949 11.3291C9.74949 8.9797 7.84457 7.07471 5.4958 7.07471C3.14637 7.07471 1.24146 8.9797 1.24146 11.3291C1.24146 13.6784 3.14637 15.5821 5.4958 15.5821Z" fill="white"/>
<path d="M8.31736 20.2221C8.49181 19.1849 8.98401 17.9636 9.60109 16.8343C9.4291 16.5993 9.25718 16.3947 9.09848 16.236C9.00461 16.1416 8.58561 16.1198 8.4718 16.19C7.60526 16.7229 6.5874 17.0365 5.49576 17.0365C4.40397 17.0365 3.38546 16.7229 2.51964 16.19C2.40633 16.1198 1.98618 16.1416 1.89231 16.236C1.17782 16.9481 0.238728 18.5423 0.0485246 19.6814C-0.418889 22.4807 2.57233 23.4943 5.49576 23.4943C6.53905 23.4943 7.59261 23.3659 8.49181 23.0722C8.20846 22.2004 8.14848 21.2412 8.31736 20.2221Z" fill="white"/>
</svg>
